<svg width="120" height="96" viewBox="0 0 120 96" fill="none" xmlns="http://www.w3.org/2000/svg">
<path d="M28.0196 0.51996C9.71547 1.97597 2.01941 11.5267 0.459394 16.1201C0.112725 40.7336 -0.372613 90.6887 0.459394 93.6008C1.2914 96.5128 4.79277 95.6808 6.43945 94.9008C9.55947 91.7808 18.5555 85.4887 29.5796 85.2807C43.3598 85.0207 51.4198 91.5208 53.7599 93.6008C55.6319 95.2648 56.7932 94.2941 57.1399 93.6008V13.7801C55.0599 8.75336 46.3238 -0.936053 28.0196 0.51996Z" fill="white"/>
<path d="M91.9804 0.147401C110.285 1.60341 117.981 11.1542 119.541 15.7475C119.887 40.3611 120.373 90.3162 119.541 93.2282C118.709 96.1402 115.207 95.3082 113.561 94.5282C110.441 91.4082 101.444 85.1161 90.4204 84.9081C76.6402 84.6481 68.5802 91.1482 66.2401 93.2282C64.3681 94.8922 63.2068 93.9216 62.8601 93.2282V13.4075C64.9401 8.38081 73.6762 -1.30861 91.9804 0.147401Z" fill="white"/>
</svg>
