<svg width="231" height="184" viewBox="0 0 231 184" fill="none" xmlns="http://www.w3.org/2000/svg">
<path d="M54.0001 1.00001C18.8001 3.80001 4.00014 22.1667 1.00014 31C0.333475 78.3333 -0.599858 174.4 1.00014 180C2.60014 185.6 9.33348 184 12.5001 182.5C18.5001 176.5 35.8001 164.4 57.0001 164C83.5001 163.5 99.0001 176 103.5 180C107.1 183.2 109.333 181.333 110 180V26.5C106 16.8333 89.2001 -1.79999 54.0001 1.00001Z" fill="white"/>
<path d="M177 0.283461C212.2 3.08346 227 21.4501 230 30.2835C230.667 77.6168 231.6 173.683 230 179.283C228.4 184.883 221.667 183.283 218.5 181.783C212.5 175.783 195.2 163.683 174 163.283C147.5 162.783 132 175.283 127.5 179.283C123.9 182.483 121.667 180.617 121 179.283V25.7835C125 16.1168 141.8 -2.51654 177 0.283461Z" fill="white"/>
</svg>
