<svg width="133" height="120" viewBox="0 0 133 120" fill="none" xmlns="http://www.w3.org/2000/svg">
<path d="M48.5668 95.8439C74.0164 95.8439 94.6474 74.9521 94.6474 49.1807C94.6474 23.4094 74.0164 2.51758 48.5668 2.51758C23.1173 2.51758 2.48633 23.4094 2.48633 49.1807C2.48633 74.9521 23.1173 95.8439 48.5668 95.8439Z" fill="#FBE2A8" stroke="#FBE2A8" stroke-width="4" stroke-miterlimit="10"/>
<path d="M27.7576 61.2651C29.2474 61.2651 30.4551 60.0421 30.4551 58.5335C30.4551 57.0249 29.2474 55.802 27.7576 55.802C26.2678 55.802 25.0601 57.0249 25.0601 58.5335C25.0601 60.0421 26.2678 61.2651 27.7576 61.2651Z" fill="#6D6A66"/>
<path d="M56.1619 58.6342C57.6516 58.6342 58.8593 57.4112 58.8593 55.9026C58.8593 54.394 57.6516 53.1711 56.1619 53.1711C54.6721 53.1711 53.4644 54.394 53.4644 55.9026C53.4644 57.4112 54.6721 58.6342 56.1619 58.6342Z" fill="#6D6A66"/>
<path d="M48.1937 64.0344C44.6758 66.6779 40.4618 67.2695 36.3721 65.6582C34.8805 65.0666 34.2341 67.5087 35.7133 68.0877C40.3251 69.9003 45.4838 69.1954 49.4492 66.2121C50.7171 65.2554 49.4741 63.0651 48.1937 64.0344Z" fill="#545256"/>
<path d="M49.1758 116.727L32.9786 119.32C31.3004 119.585 29.7217 118.427 29.4607 116.727L24.4263 84.5022C24.1652 82.8029 25.3089 81.2042 26.987 80.9399L43.1842 78.3468C44.8623 78.0824 46.441 79.2405 46.702 80.9399L51.7365 113.165C52.0099 114.864 50.8663 116.463 49.1758 116.727Z" fill="#545256" stroke="#545256" stroke-miterlimit="10"/>
<path d="M27.3226 62.0455C31.3253 62.0455 31.3253 55.7516 27.3226 55.7516C23.3199 55.7516 23.3075 62.0455 27.3226 62.0455Z" fill="#545256"/>
<path d="M55.7889 59.2762C59.7915 59.2762 59.7915 52.9823 55.7889 52.9823C51.7862 52.9823 51.7738 59.2762 55.7889 59.2762Z" fill="#545256"/>
<path d="M11.1876 78.5356C4.53716 82.4378 2.17533 91.7529 7.08545 98.0594C13.4127 106.191 26.266 107.337 35.3901 104.769C39.2436 103.686 37.6028 97.6062 33.7368 98.7013C27.6085 100.426 20.896 100.099 15.3022 96.8006C10.3299 93.8802 8.63929 87.2967 14.3326 83.9736C17.7883 81.9469 14.6682 76.509 11.1876 78.5356Z" fill="#FBE2A8"/>
<path d="M69.5124 81.0532C72.7195 83.3568 77.2443 86.9569 75.0068 91.0228C73.2416 94.2453 68.0083 96.5992 64.8136 97.7447C59.0085 99.8217 48.977 101.76 44.6014 95.8691C42.2271 92.6718 36.8322 95.8062 39.2313 99.0412C46.6897 109.099 61.9297 106.783 71.6878 101.559C75.8894 99.3056 81.8188 95.0383 82.4279 89.8018C83.1116 83.8477 76.8714 78.6615 72.645 75.6152C69.3881 73.2739 66.2805 78.7244 69.5124 81.0532Z" fill="#FBE2A8"/>
<g clip-path="url(#clip0_306_92)">
<path d="M117.225 60.2329H78.0811C75.5577 60.2329 73.519 58.1559 73.519 55.6131V26.6988C73.519 24.1435 75.5701 22.0791 78.0811 22.0791H117.238C119.761 22.0791 121.8 24.1561 121.8 26.6988V55.6131C121.8 58.1559 119.749 60.2329 117.225 60.2329Z" fill="#5AC1CC" stroke="#5AC1CC" stroke-miterlimit="10"/>
<path d="M85.838 58.0426C85.751 60.1322 85.6391 63.9715 85.7883 66.0485C87.5286 64.626 89.1446 61.1266 90.2633 59.1629L85.838 58.0426Z" fill="#5AC1CC"/>
<path d="M82.7304 58.0426C82.631 60.6986 82.5191 63.3924 82.6807 66.0485C82.8547 68.843 85.9127 70.1018 87.9886 68.2765C90.2386 66.2876 91.5065 63.3421 92.9485 60.7616C93.918 59.0244 93.0728 56.6453 91.0963 56.1418C89.617 55.7642 88.1502 55.3866 86.671 55.0089C82.7926 54.0145 81.1393 60.0944 85.0177 61.0763C86.4969 61.4539 87.9638 61.8315 89.443 62.2092C88.8215 60.6734 88.1999 59.1251 87.5908 57.5894C86.4099 59.7042 85.4403 62.2092 83.6006 63.833C85.3657 64.5757 87.1433 65.3184 88.9085 66.0611C88.7345 63.405 88.8463 60.7112 88.9582 58.0552C89.0949 53.9893 82.8796 54.0019 82.7304 58.0426Z" fill="#5AC1CC"/>
<path d="M131.11 22.7588C131.446 18.4286 128.102 16.2761 124.249 18.3783C119.674 20.8706 115.995 25.0498 112.663 29.0024C111.781 30.0472 103.887 40.1175 102.942 39.2993C98.4177 35.397 96.3169 31.671 90.3874 29.9843C85.4649 28.587 82.3324 34.5285 85.4152 38.8209C86.8696 40.8476 89.48 42.635 91.3695 44.2966C103.029 54.5432 103.029 54.5432 110.227 48.3248C115.162 44.0575 120.134 39.765 124.435 34.818C127.157 31.6836 130.402 27.6429 131.048 23.3882C131.073 23.1742 131.098 22.9602 131.11 22.7588Z" fill="white" stroke="#5AC1CC" stroke-width="3" stroke-miterlimit="10"/>
</g>
<defs>
<clipPath id="clip0_306_92">
<rect width="60" height="54" fill="white" transform="translate(73 16)"/>
</clipPath>
</defs>
</svg>
