<svg width="53" height="57" viewBox="0 0 53 57" fill="none" xmlns="http://www.w3.org/2000/svg">
<circle cx="27" cy="28" r="3" fill="black"/>
<path d="M52 28.2348C52 29.3296 51.4478 30.4745 50.2314 31.6217C49.013 32.7707 47.1961 33.8515 44.8678 34.7802C40.217 36.6353 33.7234 37.805 26.5 37.805C19.2766 37.805 12.783 36.6353 8.13216 34.7802C5.80393 33.8515 3.98702 32.7707 2.76859 31.6217C1.55216 30.4745 1 29.3296 1 28.2348C1 27.14 1.55216 25.995 2.76859 24.8479C3.98702 23.6988 5.80393 22.618 8.13216 21.6893C12.783 19.8342 19.2766 18.6646 26.5 18.6646C33.7234 18.6646 40.217 19.8342 44.8678 21.6893C47.1961 22.618 49.013 23.6988 50.2314 24.8479C51.4478 25.995 52 27.14 52 28.2348Z" stroke="black" stroke-width="2"/>
<path d="M39.25 50.3184C38.3018 50.8658 37.0342 50.9601 35.4325 50.4802C33.8282 49.9996 31.9837 48.9665 30.0154 47.4145C26.0834 44.3143 21.8236 39.2756 18.2119 33.0199C14.6002 26.7642 12.3664 20.5558 11.6475 15.6005C11.2877 13.1198 11.3152 11.0059 11.7011 9.37622C12.0864 7.74919 12.8018 6.69854 13.75 6.15114C14.6981 5.60373 15.9657 5.50945 17.5674 5.98934C19.1717 6.47001 21.0162 7.50308 22.9846 9.05505C26.9166 12.1552 31.1763 17.194 34.788 23.4497C38.3997 29.7053 40.6336 35.9138 41.3524 40.8691C41.7123 43.3497 41.6847 45.4636 41.2988 47.0933C40.9136 48.7204 40.1981 49.771 39.25 50.3184Z" stroke="black" stroke-width="2"/>
<path d="M39.25 6.1512C40.1982 6.69861 40.9136 7.74925 41.2989 9.37629C41.6847 11.006 41.7123 13.1199 41.3525 15.6006C40.6336 20.5559 38.3998 26.7643 34.7881 33.02C31.1764 39.2756 26.9166 44.3144 22.9846 47.4146C21.0163 48.9666 19.1718 49.9996 17.5675 50.4803C15.9658 50.9602 14.6982 50.8659 13.75 50.3185C12.8019 49.7711 12.0864 48.7204 11.7012 47.0934C11.3153 45.4637 11.2877 43.3498 11.6476 40.8691C12.3664 35.9139 14.6003 29.7054 18.212 23.4497C21.8237 17.1941 26.0834 12.1553 30.0154 9.05511C31.9838 7.50314 33.8283 6.47007 35.4326 5.9894C37.0343 5.50952 38.3019 5.6038 39.25 6.1512Z" stroke="black" stroke-width="2"/>
</svg>
