<svg width="42" height="62" viewBox="0 0 42 62" fill="none" xmlns="http://www.w3.org/2000/svg">
<path d="M0.503418 10.25C0.503418 4.58908 5.0925 0 10.7534 0H21.0034V20.5H10.7534C5.0925 20.5 0.503418 15.9109 0.503418 10.25Z" fill="#E24C16"/>
<path d="M0.503418 30.75C0.503418 25.0891 5.0925 20.5 10.7534 20.5H21.0034V41H10.7534C5.0925 41 0.503418 36.4109 0.503418 30.75Z" fill="#9D50F5"/>
<path d="M0.503418 51.25C0.503418 45.5891 5.0925 41 10.7534 41H21.0034V51.25C21.0034 56.9109 16.4143 61.5 10.7534 61.5C5.0925 61.5 0.503418 56.9109 0.503418 51.25Z" fill="#00BF75"/>
<path d="M41.5034 10.25C41.5034 15.9109 36.9143 20.5 31.2534 20.5L21.0034 20.5L21.0034 0L31.2534 0C36.9143 0 41.5034 4.58908 41.5034 10.25Z" fill="#F56863"/>
<circle cx="30.6505" cy="30.1471" r="9.64706" fill="#2AA9F5"/>
</svg>
