<svg width="62" height="66" viewBox="0 0 62 66" fill="none" xmlns="http://www.w3.org/2000/svg">
<path d="M9.83501 0.107012C8.11499 4.64158 8.79981 9.55404 9.35722 11.4434C4.77051 16.9227 4.57939 24.2757 5.05717 27.2672C5.82162 40.493 18.7536 44.7442 25.1241 45.2165C23.2129 46.7281 22.4166 49.7826 22.2574 51.1209C16.524 53.0103 12.4628 52.3018 10.3128 48.7592C8.16276 45.2165 6.25163 44.2718 5.77384 43.7995C5.29606 43.3271 0.757133 42.1463 0.518241 43.3271C0.327128 44.2718 2.03122 45.2953 2.90716 45.6889C4.5794 46.8698 6.72942 50.4124 7.2072 52.0656C7.58943 53.3882 9.11833 54.9785 9.83501 55.6083C13.275 57.8756 19.5499 57.6551 22.2574 57.2615V66H44.2354L44.2354 51.1209C44.0443 48.0979 42.2446 45.9251 41.3687 45.2165C54.0299 44.2718 60.7189 36.9504 61.4356 26.5587C62.0089 18.2453 58.8078 13.1754 57.1355 11.6796C58.6644 6.57823 57.2948 1.83897 56.4188 0.10701C52.7877 -0.648751 46.7836 2.78367 44.2354 4.59435C35.6353 1.76024 26 3.41347 22.2574 4.59435C16.7151 0.626598 11.6665 -0.0504386 9.83501 0.107012Z" fill="black"/>
</svg>
