<svg width="65" height="47" viewBox="0 0 65 47" fill="none" xmlns="http://www.w3.org/2000/svg">
<path fill-rule="evenodd" clip-rule="evenodd" d="M0 0.175686V47H9.6V32.4057C17.4 33.2165 33 31.3111 33 17.2033C33 -0.432322 19.2 -0.432825 0 0.175686ZM10.2 23.8915V8.68912H10.2455C16.2363 8.68906 23.4 8.689 23.4 17.2025C23.4 23.8915 15 24.4996 10.2 23.8915Z" fill="#001833"/>
<path d="M40.0747 16.0611C44.8827 8.26954 56.9028 9.36524 62.9128 11.8001L62.9128 20.322C61.1098 19.7132 59.9078 18.4958 55.0998 17.8871C50.2918 17.2784 48.4887 18.4958 48.4887 20.3223C48.4887 22.247 51.8944 23.7713 53.8978 24.5829C56.9028 25.8004 66.5188 28.2352 64.1148 38.5837C61.6037 49.3932 46.0847 47.5115 38.8727 45.2795V35.5398C39.0731 35.9456 41.8777 38.1625 47.2867 38.5837C55.0998 39.192 55.0998 37.8705 55.0998 36.1488C55.0998 34.9311 50.6924 32.9024 47.8877 31.8879C42.4788 29.9313 35.2667 23.8526 40.0747 16.0611Z" fill="#001833"/>
</svg>
