<svg width="120" height="108" viewBox="0 0 120 108" fill="none" xmlns="http://www.w3.org/2000/svg">
<path d="M43.7087 86.2595C66.6134 86.2595 85.1813 67.4569 85.1813 44.2626C85.1813 21.0684 66.6134 2.26581 43.7087 2.26581C20.8042 2.26581 2.23633 21.0684 2.23633 44.2626C2.23633 67.4569 20.8042 86.2595 43.7087 86.2595Z" fill="#FBE2A8" stroke="#FBE2A8" stroke-width="4" stroke-miterlimit="10"/>
<path d="M24.981 55.1386C26.3218 55.1386 27.4087 54.0379 27.4087 52.6802C27.4087 51.3224 26.3218 50.2218 24.981 50.2218C23.6402 50.2218 22.5532 51.3224 22.5532 52.6802C22.5532 54.0379 23.6402 55.1386 24.981 55.1386Z" fill="#6D6A66"/>
<path d="M50.5445 52.7708C51.8852 52.7708 52.9721 51.6701 52.9721 50.3124C52.9721 48.9546 51.8852 47.854 50.5445 47.854C49.2036 47.854 48.1167 48.9546 48.1167 50.3124C48.1167 51.6701 49.2036 52.7708 50.5445 52.7708Z" fill="#6D6A66"/>
<path d="M43.3732 57.631C40.2071 60.0101 36.4145 60.5425 32.7338 59.0924C31.3913 58.5599 30.8096 60.7578 32.1408 61.2789C36.2915 62.9103 40.9343 62.2758 44.5031 59.5909C45.6443 58.7298 44.5256 56.7586 43.3732 57.631Z" fill="#545256"/>
<path d="M44.2572 105.054L29.6797 107.388C28.1693 107.626 26.7485 106.584 26.5136 105.054L21.9826 76.052C21.7476 74.5226 22.777 73.0838 24.2873 72.8459L38.8647 70.5121C40.375 70.2741 41.7959 71.3164 42.0308 72.8459L46.5618 101.848C46.8079 103.378 45.7786 104.817 44.2572 105.054Z" fill="#545256" stroke="#545256" stroke-miterlimit="10"/>
<path d="M24.5893 55.841C28.1917 55.841 28.1917 50.1765 24.5893 50.1765C20.9869 50.1765 20.9757 55.841 24.5893 55.841Z" fill="#545256"/>
<path d="M50.2089 53.3486C53.8113 53.3486 53.8113 47.6841 50.2089 47.6841C46.6065 47.6841 46.5953 53.3486 50.2089 53.3486Z" fill="#545256"/>
<path d="M10.0681 70.682C4.08271 74.194 1.95707 82.5776 6.37617 88.2534C12.0707 95.5719 23.6386 96.6033 31.8503 94.2921C35.3185 93.3174 33.8418 87.8456 30.3624 88.8311C24.8469 90.3834 18.8056 90.0891 13.7712 87.1205C9.29615 84.4922 7.77463 78.567 12.8986 75.5762C16.0087 73.7522 13.2006 68.8581 10.0681 70.682Z" fill="#FBE2A8"/>
<path d="M62.5599 72.9479C65.4463 75.0211 69.5186 78.2612 67.5048 81.9205C65.9162 84.8208 61.2062 86.9393 58.331 87.9702C53.1064 89.8395 44.078 91.584 40.14 86.2822C38.0031 83.4046 33.1477 86.2256 35.3069 89.1371C42.0195 98.1891 55.7355 96.1047 64.5177 91.4031C68.2992 89.375 73.6356 85.5345 74.1838 80.8216C74.7992 75.4629 69.183 70.7954 65.3792 68.0537C62.448 65.9465 59.6512 70.852 62.5599 72.9479Z" fill="#FBE2A8"/>
<g clip-path="url(#clip0_306_92)">
<path d="M105.503 54.2096H70.2728C68.0018 54.2096 66.167 52.3403 66.167 50.0518V24.0289C66.167 21.7292 68.0129 19.8712 70.2728 19.8712H105.514C107.785 19.8712 109.62 21.7405 109.62 24.0289V50.0518C109.62 52.3403 107.774 54.2096 105.503 54.2096Z" fill="#5AC1CC" stroke="#5AC1CC" stroke-miterlimit="10"/>
<path d="M77.254 52.2383C77.1757 54.119 77.075 57.5744 77.2092 59.4437C78.7755 58.1634 80.2299 55.0139 81.2367 53.2466L77.254 52.2383Z" fill="#5AC1CC"/>
<path d="M74.457 52.2384C74.3675 54.6288 74.2668 57.0532 74.4123 59.4437C74.5689 61.9587 77.3211 63.0916 79.1894 61.4489C81.2144 59.6589 82.3555 57.0079 83.6533 54.6855C84.5258 53.122 83.7651 50.9808 81.9863 50.5276C80.6549 50.1878 79.3348 49.848 78.0035 49.508C74.513 48.6131 73.025 54.085 76.5156 54.9687C77.8468 55.3085 79.167 55.6484 80.4983 55.9883C79.939 54.6061 79.3795 53.2126 78.8313 51.8305C77.7685 53.7338 76.8959 55.9883 75.2402 57.4497C76.8288 58.1182 78.4286 58.7866 80.0173 59.455C79.8607 57.0645 79.9613 54.6401 80.062 52.2497C80.185 48.5904 74.5913 48.6017 74.457 52.2384Z" fill="#5AC1CC"/>
<path d="M117.999 20.483C118.301 16.5858 115.292 14.6485 111.824 16.5405C107.707 18.7836 104.395 22.5449 101.397 26.1022C100.603 27.0425 93.4985 36.1058 92.6482 35.3694C88.576 31.8573 86.6853 28.5039 81.3487 26.9859C76.9185 25.7283 74.0992 31.0757 76.8737 34.9388C78.1827 36.7629 80.5321 38.3715 82.2326 39.867C92.7265 49.0889 92.7265 49.0889 99.2042 43.4923C103.646 39.6518 108.121 35.7885 111.992 31.3362C114.442 28.5153 117.362 24.8786 117.943 21.0494C117.966 20.8568 117.988 20.6642 117.999 20.483Z" fill="white" stroke="#5AC1CC" stroke-width="3" stroke-miterlimit="10"/>
</g>
<defs>
<clipPath id="clip0_306_92">
<rect width="54" height="48.6" fill="white" transform="translate(65.6997 14.4)"/>
</clipPath>
</defs>
</svg>
