<svg width="142" height="82" viewBox="0 0 142 82" fill="none" xmlns="http://www.w3.org/2000/svg">
<path d="M61.1425 49.2981L17.8619 6.31398C16.5933 5.05411 17.4891 2.88983 19.2769 2.89492L121.91 3.18733C123.696 3.19241 124.581 5.35729 123.309 6.61125L80.0295 49.2981C78.9624 50.1518 75.6759 52.2432 71.0662 52.4993C66.4565 52.7554 62.1029 50.3652 61.1425 49.2981Z" fill="white"/>
<path d="M47.1836 39.5412C47.9912 40.3266 47.9912 41.6236 47.1836 42.409L15.559 73.16C14.2912 74.3928 12.1648 73.4945 12.1648 71.7262L12.1648 10.224C12.1648 8.45568 14.2912 7.55737 15.559 8.79014L47.1836 39.5412Z" fill="white"/>
<path d="M94.3096 39.5412C93.5019 40.3266 93.5019 41.6236 94.3096 42.409L125.934 73.16C127.202 74.3928 129.328 73.4945 129.328 71.7262L129.328 10.224C129.328 8.45568 127.202 7.55737 125.934 8.79014L94.3096 39.5412Z" fill="white"/>
<path d="M17.2945 74.9958L47.8658 45.2507C48.6573 44.4806 49.9194 44.4967 50.7251 45.2518C55.2822 49.523 63.8694 56.021 70.7466 56.021C77.6244 56.021 85.9561 49.5217 90.4591 45.2506C91.2577 44.4931 92.5147 44.474 93.3071 45.2381L124.161 74.9896C125.456 76.2386 124.572 78.4292 122.772 78.4292H18.6892C16.8941 78.4292 16.0079 76.2476 17.2945 74.9958Z" fill="white"/>
</svg>
