<svg width="221" height="128" viewBox="0 0 221 128" fill="none" xmlns="http://www.w3.org/2000/svg">
<path d="M95.5001 77L25.9566 7.93294C24.6881 6.67307 25.5838 4.50879 27.3717 4.51388L193.144 4.98616C194.93 4.99125 195.814 7.15613 194.543 8.41009L125 77C123.333 78.3333 118.2 81.6 111 82C103.8 82.4 97.0001 78.6667 95.5001 77Z" fill="white"/>
<path d="M74.5254 62.5661C75.333 63.3515 75.333 64.6485 74.5254 65.4339L22.3943 116.125C21.1265 117.358 19 116.46 19 114.691L19 13.3088C19 11.5404 21.1265 10.6421 22.3943 11.8749L74.5254 62.5661Z" fill="white"/>
<path d="M146.475 62.5661C145.667 63.3515 145.667 64.6485 146.475 65.4339L198.606 116.125C199.874 117.358 202 116.46 202 114.691L202 13.3088C202 11.5404 199.874 10.6421 198.606 11.8749L146.475 62.5661Z" fill="white"/>
<path d="M25.0288 119.067L75.5671 69.8942C76.3585 69.1241 77.6199 69.1392 78.4145 69.906C85.2821 76.533 99.3341 87.5 110.5 87.5C121.667 87.5 135.289 76.53 142.095 69.9034C142.884 69.1355 144.14 69.1175 144.933 69.8816L195.933 119.06C197.228 120.309 196.344 122.5 194.545 122.5H26.4235C24.6285 122.5 23.7423 120.318 25.0288 119.067Z" fill="white"/>
</svg>
